<?xml version="1.0" encoding="UTF-8" standalone="no"?>
<svg
   version="1.0"
   width="564"
   height="565"
   viewBox="0 0 843.79486 1084.6395"
   preserveAspectRatio="xMidYMid meet"
   id="svg44"
   sodipodi:docname="032d0c229aed2731a47f39580fe5f9a8.svg"
   xmlns:inkscape="http://www.inkscape.org/namespaces/inkscape"
   xmlns:sodipodi="http://sodipodi.sourceforge.net/DTD/sodipodi-0.dtd"
   xmlns="http://www.w3.org/2000/svg"
   xmlns:svg="http://www.w3.org/2000/svg">
  <defs
     id="defs48" />
  <sodipodi:namedview
     id="namedview46"
     pagecolor="#666666"
     bordercolor="#666666"
     borderopacity="1.0"
     inkscape:pageshadow="2"
     inkscape:pageopacity="0.0"
     inkscape:pagecheckerboard="0"
     inkscape:document-units="pt" />
  <g
     transform="matrix(0.1,0,0,-0.1,-554.9868,1359.9248)"
     fill="#371c6d"
     stroke="none"
     id="g42">
    <path
       d="m 9777,13593 c -4,-3 -7,-17 -7,-30 0,-31 -51,-83 -82,-83 -13,0 -31,-9 -41,-20 -21,-25 -43,-26 -50,-1 -9,36 -186,33 -228,-5 -17,-16 -23,-14 -94,21 l -76,37 -28,-26 c -23,-22 -45,-30 -123,-41 -52,-8 -124,-24 -159,-35 -74,-23 -106,-25 -160,-8 -32,9 -52,8 -108,-5 -86,-21 -135,-21 -268,-1 -130,19 -140,16 -112,-30 20,-34 20,-35 0,-45 -34,-19 -155,-31 -192,-21 -37,11 -127,11 -174,1 -31,-7 -31,-6 -18,-76 3,-16 16,-42 30,-56 13,-14 28,-42 34,-62 7,-27 17,-39 35,-43 14,-4 23,-11 21,-18 -9,-28 -157,-10 -157,19 0,20 -27,19 -38,-1 -4,-8 -28,-21 -53,-28 -51,-15 -47,3 -34,-203 l 7,-123 h -24 c -35,0 -116,-57 -144,-102 -15,-23 -40,-45 -62,-55 -74,-32 -82,-37 -79,-47 2,-6 14,-12 28,-14 13,-2 31,-5 39,-8 13,-5 13,-6 0,-13 -24,-13 -84,-21 -95,-13 -5,4 -15,16 -21,27 -15,27 -30,16 -26,-19 2,-16 -2,-32 -10,-37 -10,-7 -11,-12 0,-29 25,-41 19,-42 -157,-38 -93,1 -173,0 -177,-4 -7,-8 60,-40 109,-52 42,-10 34,-29 -10,-22 -118,19 -119,18 -161,-3 -23,-12 -46,-30 -52,-41 -10,-19 -8,-20 49,-20 57,0 61,-2 67,-26 9,-35 -12,-56 -31,-31 -18,25 -52,7 -71,-39 -10,-25 -21,-34 -37,-34 -31,0 -114,-53 -122,-79 -7,-22 -17,-26 -87,-36 -38,-5 -48,-10 -48,-25 0,-11 -39,-52 -97,-102 -53,-45 -130,-111 -170,-146 -40,-34 -73,-67 -73,-72 0,-17 22,-11 57,16 33,25 63,27 63,3 0,-6 -31,-43 -70,-81 -72,-72 -117,-146 -106,-174 5,-13 15,-15 46,-11 22,3 40,3 40,0 0,-2 -16,-25 -35,-50 -19,-25 -35,-54 -35,-65 0,-10 -10,-22 -23,-27 -31,-12 -77,-67 -77,-92 0,-12 14,-28 36,-41 l 36,-21 -28,-21 c -16,-12 -37,-29 -48,-40 -18,-18 -18,-19 -1,-29 11,-6 52,-7 103,-3 l 86,7 -36,-43 c -19,-24 -54,-56 -76,-71 -32,-21 -44,-38 -53,-70 -6,-23 -24,-59 -40,-79 -16,-20 -29,-39 -29,-42 0,-14 39,-4 55,14 10,11 20,18 22,16 8,-8 -19,-50 -58,-93 -22,-24 -39,-47 -39,-53 0,-15 21,-12 41,6 21,19 49,12 49,-10 0,-9 -11,-23 -25,-32 -16,-11 -25,-26 -25,-43 0,-15 -5,-32 -11,-38 -6,-6 -13,-29 -14,-51 -2,-21 -13,-59 -25,-82 -17,-33 -21,-54 -16,-85 4,-33 -3,-65 -29,-141 -19,-55 -35,-111 -35,-125 0,-14 -11,-58 -25,-97 -22,-64 -25,-88 -25,-214 0,-176 15,-390 35,-483 8,-38 19,-137 25,-220 6,-82 20,-202 30,-267 11,-64 20,-134 20,-155 0,-22 7,-48 15,-59 9,-13 14,-44 15,-94 0,-44 15,-150 35,-255 23,-115 43,-267 57,-423 l 22,-243 61,-33 c 33,-18 94,-48 135,-66 94,-42 115,-61 129,-114 6,-24 17,-48 25,-55 7,-6 17,-33 21,-59 11,-72 34,-104 49,-67 3,9 13,129 21,268 9,138 22,297 31,352 8,55 21,147 29,205 8,58 20,139 26,180 15,99 150,644 196,789 28,90 50,134 103,215 129,196 219,360 275,500 23,60 28,91 35,227 10,177 31,283 85,415 35,88 67,134 92,134 7,0 13,9 13,19 0,11 36,59 80,106 44,47 80,90 80,95 0,5 19,20 43,34 36,22 111,95 159,158 20,25 92,62 96,49 2,-6 12,-11 22,-11 10,0 32,-14 49,-31 31,-30 31,-30 31,-7 0,47 43,194 73,252 19,35 43,66 60,75 31,17 67,44 174,132 89,74 161,113 272,149 50,16 117,43 149,59 78,39 210,79 507,152 292,72 365,79 585,55 80,-8 213,-18 295,-21 83,-3 229,-15 325,-25 96,-11 236,-24 310,-29 162,-12 202,-23 384,-108 78,-36 175,-78 216,-95 170,-67 376,-183 525,-296 127,-97 313,-291 482,-505 70,-89 145,-233 187,-362 44,-137 106,-472 106,-578 0,-50 3,-57 18,-55 15,3 18,-11 24,-120 11,-197 67,-341 140,-360 l 33,-8 8,-90 c 7,-91 39,-251 76,-383 12,-41 37,-176 56,-300 30,-195 36,-266 45,-521 5,-162 10,-419 11,-570 1,-151 4,-288 8,-305 6,-26 14,-9 57,123 l 50,153 78,34 c 89,38 126,61 126,76 0,6 9,22 20,36 12,15 20,41 20,62 0,20 11,71 25,114 14,43 25,95 25,116 0,21 11,68 24,104 14,35 32,103 40,150 8,48 28,126 45,174 16,48 37,138 46,198 10,67 35,169 65,260 55,165 67,214 80,323 6,43 18,85 29,100 18,26 41,93 41,121 0,9 -7,11 -24,7 -32,-8 -43,10 -20,35 14,16 15,23 6,45 -7,13 -12,29 -12,34 0,15 28,12 37,-4 5,-9 8,3 8,32 0,26 4,66 8,90 8,40 8,42 -16,42 -24,0 -24,0 -12,53 11,48 14,52 43,55 29,3 32,6 32,37 0,19 5,37 10,40 6,4 8,27 4,58 -9,83 -22,115 -47,119 -17,2 -21,9 -19,26 2,13 -4,34 -12,47 -9,13 -16,27 -16,30 0,13 44,3 68,-16 l 27,-21 5,23 c 14,59 -28,312 -62,369 -29,49 -47,219 -28,255 18,33 1,69 -70,147 -40,45 -51,64 -48,85 3,26 6,28 41,25 40,-3 50,14 22,38 -21,18 -19,24 15,37 32,12 40,39 18,61 -21,21 3,13 60,-20 l 55,-31 18,22 c 26,32 34,86 20,143 -6,27 -11,67 -11,89 0,49 -19,129 -31,129 -5,0 -9,-7 -9,-16 0,-29 -25,-8 -31,27 -7,42 -22,72 -64,124 -60,75 -66,91 -75,185 -9,95 -20,120 -52,120 -10,0 -54,27 -96,59 -42,33 -102,72 -132,88 -76,39 -73,58 8,59 35,0 68,6 75,13 9,10 8,11 -5,6 -12,-5 -18,-2 -18,8 0,8 7,17 15,21 8,3 15,12 15,20 0,9 -6,13 -13,10 -8,-3 -19,2 -26,10 -6,8 -36,26 -66,41 -86,42 -134,115 -84,128 18,5 19,9 9,27 -20,37 -78,96 -114,115 -19,11 -43,34 -53,53 -10,19 -34,41 -53,50 -21,11 -51,41 -78,80 -24,34 -50,62 -57,62 -23,0 -125,106 -125,129 0,15 -11,26 -37,38 -21,10 -49,27 -63,39 -14,12 -61,31 -108,43 -46,11 -96,30 -113,42 -32,23 -32,22 16,78 13,16 15,22 5,18 -82,-31 -90,-32 -117,-4 l -26,26 25,6 c 30,8 80,55 58,55 -7,0 -41,-5 -76,-11 -66,-11 -103,-1 -134,36 -23,27 -113,82 -147,90 -40,8 -79,38 -99,77 -10,20 -20,28 -31,24 -8,-3 -32,-9 -52,-12 -34,-5 -41,-2 -73,32 l -36,37 -109,8 c -120,8 -156,19 -193,61 -23,27 -36,30 -160,48 -143,21 -206,41 -215,71 -9,28 -34,44 -47,31 -16,-16 -64,-15 -144,4 -37,8 -73,13 -80,10 -7,-3 -30,7 -51,21 -25,17 -59,28 -105,34 -75,9 -101,20 -137,55 -30,30 -59,30 -146,-1 -95,-33 -157,-32 -253,5 -156,60 -253,73 -348,48 -42,-11 -49,-11 -84,10 -43,25 -44,25 -53,15 z m -282,-153 c 27,-30 7,-46 -39,-30 -42,13 -45,23 -13,38 31,15 32,15 52,-8 z m -685,-101 c 0,-24 -23,-21 -28,4 -2,10 3,17 12,17 10,0 16,-9 16,-21 z m -490,-9 c 0,-12 -28,-25 -36,-17 -9,9 6,27 22,27 8,0 14,-5 14,-10 z m -272,-153 c 2,-12 -1,-15 -12,-11 -19,7 -22,38 -3,32 6,-3 13,-12 15,-21 z m -268,-232 c 0,-24 -5,-35 -14,-35 -16,0 -24,25 -18,53 8,32 32,19 32,-18 z m 100,6 c 0,-12 -28,-22 -34,-12 -3,5 -3,11 1,15 9,9 33,7 33,-3 z m 38,-53 c -2,-17 -11,-24 -30,-26 -34,-4 -36,11 -6,32 31,22 40,20 36,-6 z m 4971,-397 c 17,-11 5,-31 -19,-31 -24,0 -36,20 -19,31 8,5 16,9 19,9 3,0 11,-4 19,-9 z m -5423,-142 c 10,-17 -13,-36 -27,-22 -12,12 -4,33 11,33 5,0 12,-5 16,-11 z m -296,-463 c 0,-8 -7,-16 -15,-20 -15,-5 -21,14 -8,27 11,12 23,8 23,-7 z m 6411,-332 c 14,-7 31,-20 38,-28 11,-14 11,-16 -4,-16 -18,0 -125,57 -125,67 0,7 62,-8 91,-23 z m 107,-868 c 3,-12 -1,-17 -10,-14 -7,3 -15,13 -16,22 -3,12 1,17 10,14 7,-3 15,-13 16,-22 z M 6410,7514 c 13,-33 3,-72 -21,-79 -40,-13 -49,13 -25,70 18,42 33,44 46,9 z"
       id="path2" />
    <path
       d="m 7972,10560 c -15,-47 -26,-110 -18,-110 9,0 38,108 34,128 -3,11 -8,6 -16,-18 z"
       id="path4" />
    <path
       d="m 8135,9691 c -16,-4 -51,-18 -78,-30 -26,-12 -62,-24 -80,-28 -101,-19 -366,-215 -413,-305 -26,-50 -13,-98 27,-98 32,0 286,88 325,113 70,43 111,52 244,51 110,0 334,-23 545,-54 40,-7 107,-28 160,-51 60,-28 110,-43 150,-46 82,-7 400,14 426,28 20,10 21,17 16,75 -13,141 -54,203 -170,258 -90,42 -139,54 -297,72 -141,16 -807,28 -855,15 z"
       id="path6" />
    <path
       d="m 11045,9563 c -11,-3 -27,-11 -35,-18 -8,-7 -50,-15 -93,-18 -44,-3 -88,-12 -101,-21 -31,-20 -50,-93 -43,-157 7,-61 28,-96 65,-110 41,-17 359,-5 462,17 68,14 136,18 340,18 l 255,1 144,-48 c 80,-26 153,-47 163,-47 26,0 57,-17 93,-51 40,-37 144,-99 167,-99 38,0 15,57 -62,149 -28,33 -71,72 -98,87 -149,84 -240,141 -289,181 -71,58 -103,70 -205,82 -46,5 -107,13 -135,17 -50,6 -53,5 -53,-15 0,-26 -23,-27 -100,-6 -124,34 -205,45 -328,44 -70,-1 -136,-4 -147,-6 z"
       id="path8" />
    <path
       d="m 10696,9456 c -15,-25 -30,-47 -35,-51 -5,-3 -23,7 -41,21 -32,28 -52,25 -34,-4 18,-28 95,-83 112,-80 9,2 19,18 23,38 25,130 18,150 -25,76 z"
       id="path10" />
    <path
       d="m 10481,9341 c -24,-15 -5,-43 26,-39 20,2 29,9 31,26 3,17 -1,22 -20,22 -13,0 -29,-4 -37,-9 z"
       id="path12" />
    <path
       d="m 8490,8800 c -221,-14 -395,-54 -630,-144 -132,-51 -149,-61 -202,-113 l -57,-57 37,-50 c 20,-28 41,-55 47,-59 11,-10 809,-1 868,9 41,7 45,25 7,34 -13,3 -25,11 -27,17 -4,12 22,22 145,53 146,37 184,42 337,49 l 150,6 3,27 c 4,37 -43,122 -88,159 -70,58 -128,72 -305,75 -88,1 -216,-2 -285,-6 z m 371,-150 c 19,-11 25,-43 13,-74 -8,-20 -75,-39 -109,-30 -27,7 -32,28 -14,68 18,39 70,57 110,36 z"
       id="path14" />
    <path
       d="m 10991,8710 c -89,-41 -181,-139 -181,-194 0,-35 48,-56 240,-107 l 45,-12 -35,-12 c -30,-11 -35,-16 -32,-41 2,-16 7,-32 11,-36 8,-9 135,-42 199,-53 43,-7 44,-7 32,15 -14,26 -8,36 10,15 9,-10 31,-15 74,-15 37,-1 68,-6 80,-15 16,-12 64,-15 254,-15 129,0 271,-4 316,-10 44,-6 117,-10 161,-8 79,3 80,3 83,31 8,70 -108,171 -315,275 -287,144 -804,244 -942,182 z m 331,-344 c 24,-8 79,-22 123,-32 44,-9 94,-23 110,-30 29,-13 28,-13 -31,-14 -44,0 -65,5 -74,15 -9,11 -29,15 -64,14 -65,-3 -173,14 -188,29 -8,8 -5,14 13,21 34,14 62,13 111,-3 z"
       id="path16" />
    <path
       d="m 9390,7443 c -47,-8 -125,-36 -161,-59 -97,-61 -96,-164 1,-214 90,-46 225,-33 360,35 36,18 84,38 107,45 33,10 43,19 48,41 7,33 -15,81 -47,104 -60,42 -207,65 -308,48 z"
       id="path18" />
    <path
       d="m 10255,7393 c -63,-19 -125,-60 -145,-96 -13,-24 -13,-29 0,-37 8,-5 24,-10 35,-10 11,0 56,-18 100,-40 254,-129 469,-127 452,4 -7,48 -49,94 -126,134 -115,61 -217,76 -316,45 z"
       id="path20" />
    <path
       d="m 5760,7393 c -110,-40 -251,-493 -199,-642 17,-49 36,-38 59,34 32,100 147,302 200,348 16,15 30,32 30,38 0,13 48,78 94,127 l 31,33 -25,19 c -58,45 -137,62 -190,43 z"
       id="path22" />
    <path
       d="m 13669,7150 c -20,-11 -48,-33 -62,-50 l -26,-30 30,-81 c 16,-45 37,-95 45,-112 27,-53 126,-207 133,-207 4,0 11,4 17,9 5,5 25,14 44,19 l 35,9 -2,87 c -2,113 -18,208 -48,273 -45,100 -91,123 -166,83 z"
       id="path24" />
    <path
       d="m 6305,6713 c -22,-9 -62,-31 -90,-48 -43,-27 -56,-44 -92,-118 -24,-48 -43,-93 -43,-101 0,-21 92,-56 149,-56 27,0 53,-4 56,-10 11,-18 55,21 105,97 60,90 68,115 48,157 -20,41 -67,96 -81,95 -7,0 -30,-7 -52,-16 z"
       id="path26" />
    <path
       d="m 13091,6474 c -29,-37 -26,-84 8,-152 33,-65 64,-97 85,-89 45,18 66,150 32,202 -18,27 -72,65 -93,65 -6,0 -21,-12 -32,-26 z"
       id="path28" />
    <path
       d="m 5985,6260 c -16,-18 -17,-22 -1,-54 9,-19 16,-44 16,-57 0,-30 44,-102 74,-123 14,-9 37,-16 51,-16 22,0 25,4 25,33 0,61 -100,237 -134,237 -7,0 -21,-9 -31,-20 z"
       id="path30" />
    <path
       d="m 9605,6133 c -11,-3 -47,-16 -79,-30 -33,-13 -92,-31 -133,-39 -40,-7 -86,-20 -101,-28 -54,-27 -180,-68 -347,-112 -182,-48 -289,-92 -348,-144 -58,-51 -46,-90 28,-90 23,0 77,9 121,20 43,10 156,31 249,44 253,38 308,55 416,133 45,32 58,36 146,44 54,4 247,8 428,9 380,0 347,7 531,-111 55,-35 116,-69 137,-76 37,-13 333,-43 424,-43 54,0 73,19 73,76 0,38 -3,44 -20,44 -12,0 -38,-9 -60,-20 l -38,-20 -119,36 c -65,20 -170,61 -233,91 -63,30 -144,65 -180,78 -36,12 -114,44 -175,70 -133,58 -214,68 -319,40 -65,-18 -66,-18 -133,5 -67,23 -221,36 -268,23 z"
       id="path32" />
    <path
       d="m 6450,5992 c 0,-18 119,-122 139,-122 24,0 28,28 10,61 -18,34 -149,87 -149,61 z"
       id="path34" />
    <path
       d="m 13336,5883 c -11,-12 -36,-73 -36,-90 0,-25 44,-10 58,19 19,40 2,94 -22,71 z"
       id="path36" />
    <path
       d="m 12985,5759 c -19,-17 -35,-35 -35,-40 0,-19 39,-8 69,20 58,54 27,73 -34,20 z"
       id="path38" />
    <path
       d="m 9378,3450 c -55,-21 -110,-32 -190,-40 -195,-18 -270,-31 -264,-46 4,-9 -2,-14 -16,-14 -11,0 -35,-8 -52,-19 -24,-14 -60,-20 -161,-25 -184,-8 -275,-36 -275,-83 0,-27 33,-46 105,-61 86,-18 103,-29 211,-132 57,-55 112,-100 122,-100 10,0 29,-11 41,-24 30,-32 85,-44 266,-56 202,-14 289,-27 360,-56 142,-58 300,-55 560,11 177,46 586,125 641,125 17,0 36,6 43,13 6,7 52,33 103,56 51,24 116,54 144,67 98,46 129,85 81,103 -36,14 -231,41 -294,41 -37,0 -66,6 -87,19 -64,39 -275,91 -434,107 -59,5 -72,10 -70,23 3,14 -13,16 -127,16 -90,0 -137,4 -153,13 -15,9 -95,19 -206,26 -101,7 -188,16 -194,20 -7,4 -12,16 -12,27 0,28 -48,24 -142,-11 z"
       id="path40" />
  </g>
</svg>
